<svg width="113" height="45" viewBox="0 0 113 45" fill="none" xmlns="http://www.w3.org/2000/svg">
<rect x="0.5" y="0.5" width="112" height="44" rx="7.5" fill="#DCE3F1"/>
<path d="M21.2109 17.7188H22.418V18.9141V20.1094H21.2109H20.0156V18.9141H18.8203H17.6133H16.418H15.2227V20.1094V21.3164H16.418H17.6133H18.8203H20.0156H21.2109V22.5117H22.418V23.707V24.9141V26.1094V27.3047H21.2109V28.5117H20.0156H18.8203H17.6133H16.418H15.2227H14.0156V27.3047H12.8203V26.1094V24.9141H14.0156H15.2227V26.1094H16.418H17.6133H18.8203H20.0156V24.9141V23.707H18.8203H17.6133H16.418H15.2227V22.5117H14.0156V21.3164H12.8203V20.1094V18.9141V17.7188H14.0156V16.5117H15.2227H16.418H17.6133H18.8203H20.0156H21.2109V17.7188ZM32.4609 16.5117H33.668V17.7188V18.9141V20.1094H32.4609V18.9141H31.2656H30.0703V20.1094V21.3164V22.5117V23.707V24.9141V26.1094V27.3047V28.5117H28.8633H27.668V27.3047V26.1094V24.9141V23.707V22.5117V21.3164V20.1094V18.9141H26.4609H25.2656V20.1094H24.0703V18.9141V17.7188V16.5117H25.2656H26.4609H27.668H28.8633H30.0703H31.2656H32.4609ZM43.7227 18.9141H44.918V20.1211V21.3164V22.5117V23.7188V24.9141V26.1094V27.3164V28.5117H43.7227H42.5273V27.3164V26.1094V24.9141H41.3203H40.125H38.918H37.7227V26.1094V27.3164V28.5117H36.5273H35.3203V27.3164V26.1094V24.9141V23.7188V22.5117V21.3164V20.1211V18.9141H36.5273V17.7188H37.7227V16.5117H38.918H40.125H41.3203H42.5273V17.7188H43.7227V18.9141ZM42.5391 21.3047V20.1094H41.332V18.9023H40.1367H38.9297V20.1094H37.7344V21.3047V22.5H38.9297H40.1367H41.332H42.5391V21.3047ZM51.3633 21.3164V22.5117V23.707H52.5703V24.9141H53.7656V26.1094H54.9609V27.3164H56.168V28.5117H54.9609H53.7656H52.5703V27.3164H51.3633V26.1094H50.168V24.9141H48.9727V26.1094V27.3164V28.5117H47.7656H46.5703V27.3164V26.1094V24.9141V23.707V22.5117V21.3164V20.1094V18.9141V17.7188V16.5117H47.7656H48.9727V17.7188V18.9141V20.1094H50.168V18.9141H51.3633V17.7188H52.5703V16.5117H53.7656H54.9609H56.168V17.7188H54.9609V18.9141H53.7656V20.1094H52.5703V21.3164H51.3633ZM66.2227 16.5H67.418V17.707V18.9023H66.2227H65.0156H63.8203H62.6133H61.418H60.2227V20.1094V21.3047H61.418H62.6133H63.8203H65.0156H66.2227V22.5H65.0156V23.707H63.8203H62.6133H61.418H60.2227V24.9023V26.0977H61.418H62.6133H63.8203H65.0156H66.2227H67.418V27.3047V28.5H66.2227H65.0156H63.8203H62.6133H61.418H60.2227H59.0156H57.8203V27.3047V26.0977V24.9023V23.707V22.5V21.3047V20.1094V18.9023V17.707V16.5H59.0156H60.2227H61.418H62.6133H63.8203H65.0156H66.2227Z" fill="#222628"/>
<path d="M90 27.5L95 22.5L90 17.5M83 27.5L88 22.5L83 17.5" stroke="#222628" stroke-width="2" stroke-linecap="round" stroke-linejoin="round"/>
<rect x="0.5" y="0.5" width="112" height="44" rx="7.5" stroke="#333333"/>
</svg>
