<?xml version="1.0" standalone="no"?>
<!DOCTYPE svg PUBLIC "-//W3C//DTD SVG 20010904//EN"
 "http://www.w3.org/TR/2001/REC-SVG-20010904/DTD/svg10.dtd">
<svg version="1.0" xmlns="http://www.w3.org/2000/svg"
 width="400.000000pt" height="400.000000pt" viewBox="0 0 400.000000 400.000000"
 preserveAspectRatio="xMidYMid meet">
<metadata>
Created by potrace 1.14, written by Peter Selinger 2001-2017
</metadata>
<g transform="translate(0.000000,400.000000) scale(0.100000,-0.100000)"
fill="#000000" stroke="none">
<path d="M1296 3481 c-15 -17 -17 -36 -14 -125 1 -57 7 -108 11 -113 5 -4 158
-10 340 -13 l332 -5 0 -100 c1 -55 0 -104 -2 -110 -2 -6 -59 -9 -149 -9 -149
2 -172 -4 -175 -42 -1 -8 -3 -18 -4 -24 -1 -5 -3 -30 -4 -54 l-1 -45 -280 0
c-253 1 -280 2 -281 17 -3 41 -6 89 -8 108 -2 32 -44 44 -156 43 -55 0 -117 0
-137 0 l-38 1 0 69 c0 91 -6 96 -132 95 -78 0 -102 -4 -115 -17 -15 -15 -17
-78 -17 -698 l0 -681 22 -18 c18 -15 40 -18 113 -18 118 1 128 9 130 101 l2
67 152 0 c177 0 177 0 181 88 1 31 3 62 3 67 1 7 182 10 529 10 l527 0 5 -66
c7 -89 17 -99 100 -99 l67 0 0 -200 0 -200 -142 0 c-126 0 -146 -2 -166 -19
l-24 -19 0 -267 c0 -255 1 -267 20 -278 11 -7 72 -14 135 -17 l115 -5 2 -65
c1 -52 5 -68 22 -81 30 -24 30 -101 0 -121 -19 -12 -21 -24 -23 -123 -3 -108
9 -165 34 -165 6 0 10 -21 10 -46 0 -35 -5 -50 -22 -63 -20 -17 -22 -27 -22
-127 l-1 -109 473 -3 c408 -2 472 0 472 12 0 8 -8 19 -17 24 -27 16 -25 99 4
128 21 21 23 32 23 134 0 98 -2 112 -21 131 -14 14 -22 36 -24 67 -2 38 2 49
20 64 21 16 23 26 24 132 2 105 0 116 -21 142 -13 16 -23 38 -23 49 0 19 8 20
113 25 93 4 116 8 126 23 19 25 17 540 -2 559 -9 9 -59 15 -165 18 l-153 5 0
563 c0 649 9 596 -99 596 l-65 0 -1 36 c-1 69 -7 102 -21 116 -10 11 -51 15
-163 17 l-149 2 -1 63 c-3 101 1 100 -292 102 l-43 0 0 110 0 110 320 0 c388
0 360 -11 360 139 0 92 -2 101 -22 115 -20 14 -112 16 -799 16 -754 0 -776 -1
-793 -19z m-496 -793 c0 -71 8 -94 33 -105 13 -5 383 -9 910 -9 l887 1 0 -61
c0 -88 16 -105 101 -106 l66 -1 0 -448 0 -449 -116 0 -116 0 0 315 c0 365 4
347 -94 349 -33 1 -63 4 -66 8 -3 3 -7 33 -9 67 -2 38 -8 68 -17 76 -16 17
-38 17 -984 16 -333 -1 -566 -5 -575 -11 -10 -6 -17 -32 -20 -82 l-5 -73 -32
0 -32 0 0 283 1 282 34 0 34 0 0 -52z m2308 -1447 c20 -1 23 -5 20 -33 l-3
-32 -435 -1 c-239 0 -441 1 -447 3 -12 4 -19 53 -9 63 3 3 769 3 874 0z"/>
</g>
</svg>
