<?xml version="1.0" standalone="no"?>
<!DOCTYPE svg PUBLIC "-//W3C//DTD SVG 20010904//EN"
 "http://www.w3.org/TR/2001/REC-SVG-20010904/DTD/svg10.dtd">
<svg version="1.0" xmlns="http://www.w3.org/2000/svg"
 width="400.000000pt" height="400.000000pt" viewBox="0 0 400.000000 400.000000"
 preserveAspectRatio="xMidYMid meet">
<metadata>
Created by potrace 1.14, written by Peter Selinger 2001-2017
</metadata>
<g transform="translate(0.000000,400.000000) scale(0.100000,-0.100000)"
fill="#000000" stroke="none">
<path d="M1337 3443 c-2 -5 -5 -43 -5 -85 l-1 -78 345 0 344 0 0 -160 0 -160
-166 0 -165 0 3 -85 3 -85 -32 0 c-46 0 -609 0 -634 0 -18 0 -20 6 -19 43 1
23 1 61 1 85 l-1 42 -165 0 -165 0 0 80 0 80 -80 0 -80 0 0 -660 0 -660 70 0
c39 0 73 0 78 0 4 0 8 35 10 77 2 43 5 79 7 81 2 2 74 4 162 5 l158 2 5 80 5
80 583 3 582 2 0 -85 0 -85 85 0 84 0 3 -222 c2 -123 0 -241 -3 -263 -3 -22
-7 -35 -8 -30 0 6 -20 9 -43 8 -24 -1 -96 -2 -160 -2 l-118 -1 0 -245 0 -245
130 0 130 0 0 -80 c0 -72 2 -80 19 -80 25 0 27 -5 23 -104 -3 -73 -6 -85 -23
-89 -17 -5 -19 -15 -19 -106 0 -92 2 -101 19 -101 11 0 21 -9 24 -22 3 -18 2
-109 -2 -159 -1 -4 -11 -9 -23 -12 -22 -6 -23 -9 -20 -107 l3 -100 231 0 230
0 -7 80 -7 80 26 0 c26 0 26 0 26 -80 l0 -80 160 0 160 0 0 79 c0 87 5 111 25
111 20 0 25 24 25 115 0 75 -2 86 -22 99 -17 12 -23 28 -26 75 -5 71 3 111 22
111 19 0 26 32 26 123 0 69 -2 80 -19 84 -14 4 -20 18 -25 65 -11 108 -22 98
114 98 l119 0 3 245 3 245 -150 1 c-82 1 -158 1 -167 0 -17 -2 -18 32 -18 583
l0 585 -82 3 c-67 2 -82 6 -80 18 2 8 1 45 -3 82 l-7 68 -167 0 -166 0 3 85 3
85 -165 0 -166 0 0 160 0 160 339 0 339 0 -2 83 -1 82 -757 3 c-416 1 -759 -1
-761 -5z m-485 -687 c0 -23 2 -59 2 -81 l1 -40 915 -5 915 -5 0 -70 c0 -38 4
-76 8 -82 5 -9 34 -13 83 -13 l74 0 -2 -502 -3 -503 -125 -3 c-69 -2 -144 0
-167 3 l-43 6 0 329 0 329 -82 3 -83 3 -1 55 c-1 30 -2 67 -3 83 l-1 27 -742
-2 c-652 -3 -743 -5 -744 -18 -1 -8 -2 -45 -2 -82 l-2 -68 -79 0 c-44 0 -82 4
-85 9 -3 4 -6 154 -6 332 l-1 324 28 5 c15 3 54 5 86 6 l57 0 2 -40z m2328
-1465 c3 0 4 -39 2 -86 l-3 -84 -475 -1 c-261 0 -486 3 -499 6 -24 6 -25 10
-25 85 l0 78 123 3 c111 3 865 2 877 -1z m-415 -355 c13 5 16 4 11 -4 -4 -7
-14 -12 -22 -12 -10 0 -14 -9 -12 -30 1 -16 8 -30 15 -30 7 0 10 7 6 17 -4 11
-3 14 5 9 18 -11 15 -63 -4 -70 -23 -9 -24 -6 -33 56 -8 58 -4 89 9 69 4 -7
15 -9 25 -5z m28 -183 c-7 -116 -23 -149 -23 -46 0 39 -3 79 -7 89 -5 13 -3
16 10 11 13 -5 17 -1 17 18 0 14 2 25 4 25 3 0 2 -44 -1 -97z m34 -20 c-3 -10
-5 -2 -5 17 0 19 2 27 5 18 2 -10 2 -26 0 -35z m13 -109 c0 -8 -4 -14 -8 -14
-4 0 -8 9 -8 19 0 11 4 17 8 15 4 -3 8 -12 8 -20z m-60 -248 c0 -13 3 -31 6
-40 4 -10 1 -16 -8 -16 -9 0 -15 13 -16 40 -2 23 2 40 8 40 5 0 10 -11 10 -24z
m47 -43 c-3 -10 -5 -2 -5 17 0 19 2 27 5 18 2 -10 2 -26 0 -35z m-9 -44 c8 -3
5 -8 -8 -17 -18 -11 -20 -10 -20 15 0 16 4 23 8 17 4 -6 13 -13 20 -15z m38
-51 c4 -7 3 -8 -4 -4 -7 4 -12 1 -12 -8 0 -9 -5 -16 -10 -16 -7 0 -7 6 0 20
12 23 16 24 26 8z"/>
<path d="M2753 75 c0 -44 2 -61 4 -37 2 23 2 59 0 80 -2 20 -4 1 -4 -43z"/>
</g>
</svg>
