<?xml version="1.0" standalone="no"?>
<!DOCTYPE svg PUBLIC "-//W3C//DTD SVG 20010904//EN"
 "http://www.w3.org/TR/2001/REC-SVG-20010904/DTD/svg10.dtd">
<svg version="1.0" xmlns="http://www.w3.org/2000/svg"
 width="400.000000pt" height="400.000000pt" viewBox="0 0 400.000000 400.000000"
 preserveAspectRatio="xMidYMid meet">
<metadata>
Created by potrace 1.14, written by Peter Selinger 2001-2017
</metadata>
<g transform="translate(0.000000,400.000000) scale(0.100000,-0.100000)"
fill="#000000" stroke="none">
<path d="M1330 3365 l0 -85 342 -2 343 -3 0 -153 c0 -88 -4 -156 -9 -160 -5
-3 -80 -6 -165 -6 l-156 -1 -1 -80 0 -80 -332 -3 c-262 -2 -332 0 -333 10 -1
7 -2 45 -3 83 l-1 70 -167 0 -166 0 2 68 c2 101 1 102 -85 100 -41 0 -76 -1
-79 -2 -3 -1 -5 -300 -5 -665 l0 -664 83 0 82 0 1 41 c1 23 2 60 3 82 l1 40
158 2 c87 0 162 4 165 8 4 4 7 41 7 83 l1 77 579 0 580 0 3 -82 3 -83 67 -1
c37 -1 74 -2 82 -3 13 -1 15 -36 16 -248 l2 -248 -167 -2 -166 -3 0 -248 0
-247 136 0 135 0 0 -77 c0 -72 1 -78 21 -81 25 -4 30 -29 25 -134 -3 -59 -6
-68 -23 -68 -22 0 -21 7 -21 -95 0 -108 -1 -105 21 -105 23 0 28 -28 23 -133
-3 -58 -6 -67 -23 -67 -21 0 -21 5 -22 -110 l0 -85 404 -3 405 -2 -1 97 c0 94
1 98 23 101 21 3 22 7 22 103 0 96 -1 99 -23 99 -22 0 -22 3 -22 100 0 97 1
100 22 100 22 0 23 3 23 100 0 98 -1 100 -23 100 -22 0 -23 3 -23 78 l1 77
126 3 127 3 -2 247 -1 247 -166 3 -165 2 0 576 c1 374 -3 578 -9 582 -5 4 -39
7 -75 8 -36 1 -69 2 -75 3 -6 1 -9 33 -8 81 l3 80 -168 0 -168 0 1 73 c1 39 0
77 -3 83 -2 8 -49 12 -150 12 -81 0 -155 0 -164 1 -16 1 -18 16 -18 161 l0
160 340 0 340 0 0 85 0 85 -765 0 -765 0 0 -85z m-480 -654 c0 -54 4 -80 13
-83 6 -2 418 -4 915 -4 l902 1 1 -35 c0 -19 0 -56 -1 -82 -2 -54 -10 -50 116
-50 l52 0 0 -499 -1 -499 -166 0 -167 0 1 333 1 332 -79 0 c-43 0 -81 4 -85
10 -3 5 -5 42 -4 82 l3 73 -750 0 -750 0 -3 -82 -3 -83 -70 0 c-38 -1 -75 1
-81 2 -8 3 -11 103 -11 333 l0 330 83 0 84 0 0 -79z m2238 -1421 l93 0 -3 -82
-3 -82 -498 -1 -497 0 0 82 0 82 53 3 c28 2 212 2 407 1 195 -1 397 -2 448 -3z"/>
</g>
</svg>
